<svg width="80" height="51" viewBox="0 0 80 51" fill="none" xmlns="http://www.w3.org/2000/svg">
<g clip-path="url(#clip0_148_20588)">
<path d="M73.3527 50.5164H0L6.64827 28.5H80L73.3527 50.5164Z" fill="#5A6188"/>
<path d="M31.2924 20.2453V6.47805H37.2694V11.0379H40.018V6.47805H45.994V20.2453H40.018V15.6835H37.2694V20.2453H31.2924ZM60.868 12.5902L63.1378 6.47805H57.31L55.4957 11.0389H54.4273V6.47805H48.4503V20.2464H54.4273V15.6845H55.8555L57.6708 20.2464H63.6357L60.868 12.5902ZM72.0922 16.0519C70.6499 16.0519 70.3112 14.9099 70.3112 14.0199C70.3112 13.1341 70.6499 12.0186 72.0922 12.0186C73.5053 12.0186 73.845 13.1341 73.845 14.0199C73.845 14.9099 73.5053 16.0519 72.0922 16.0519ZM74.2411 8.01092C72.4309 8.01092 71.1881 8.72429 70.3404 9.64177C70.3686 8.46813 71.2153 7.23734 72.3744 6.75257C74.3812 5.89225 76.6994 6.49335 78.3393 5.03294V0.00976562C78.3393 0.00976562 76.9373 0.592503 74.351 0.90071C72.7967 1.08645 70.5924 1.58652 68.6441 2.83058C66.212 4.3757 64.4884 6.92301 64.4884 12.0748C64.4884 18.8013 68.3316 20.6893 72.2897 20.6893C76.1904 20.6893 79.6678 18.6869 79.6678 14.2781C79.6678 10.0428 77.1802 8.01092 74.2411 8.01092ZM21.0015 15.8569C20.18 15.8569 19.4997 15.3681 19.2447 14.8813V11.8411C19.5279 11.3532 20.18 10.8664 21.0015 10.8664C22.4448 10.8664 23.0687 12.1278 23.0687 13.3617C23.0687 13.5148 23.0587 13.6709 23.0385 13.822C22.9014 14.8905 22.2644 15.8569 21.0015 15.8569ZM29.2151 13.3617C29.2151 9.97549 27.6971 6.77503 24.2762 6.13514C24.1986 6.12085 24.12 6.10758 24.0394 6.09636C23.8388 6.06676 23.6312 6.04329 23.4165 6.03206C23.2744 6.0239 23.1302 6.01982 22.9831 6.01982C22.8571 6.01982 22.7331 6.02288 22.6091 6.03002C22.6041 6.03002 22.6001 6.03002 22.594 6.03206C21.5004 6.09738 20.5409 6.44233 19.8091 6.96077C19.3041 7.30163 18.8768 7.70884 18.5371 8.14053L18.0342 6.47805H13.2959V25.7451H19.2729V19.4136C19.6922 19.7932 20.2203 20.1208 20.8563 20.3494C21.448 20.5923 22.1283 20.7046 22.9831 20.7046C27.3182 20.7046 29.2151 17.1469 29.2151 13.3617Z" fill="#5A6188"/>
</g>
<defs>
<clipPath id="clip0_148_20588">
<rect width="80" height="50.5263" fill="white"/>
</clipPath>
</defs>
</svg>
